<svg width="829" height="134" viewBox="0 0 8290 1340" version="1.1" xmlns="http://www.w3.org/2000/svg" xmlns:xlink="http://www.w3.org/1999/xlink" style="cursor: move; max-height: none; transition: transform 200ms ease-in-out 0s;">
  <g id="lhVeb0Vr41zBCPWniG0uFo" fill="rgb(42,42,42)" style="transform:none">
    <g>
      <path id="pWR8jCTWG" d="M454 1329 c-87 -10 -164 -38 -241 -88 -152 -98 -234 -283 -204 -464 37 -225 206 -379 449 -407 278 -31 470 117 505 390 7 58 8 93 1 100 -5 5 -135 25 -289 45 -154 20 -281 38 -283 40 -7 7 29 64 53 84 44 34 91 44 194 39 67 -3 118 -12 168 -30 84 -28 74 -38 98 97 9 50 18 97 21 107 4 12 -8 21 -50 37 -115 43 -296 65 -422 50z m81 -585 c72 -15 134 -30 139 -35 13 -11 -32 -84 -64 -102 -17 -11 -50 -17 -84 -17 -47 0 -60 4 -90 30 -34 30 -47 58 -61 128 -6 30 -5 33 11 29 11 -3 78 -18 149 -33z"/>
      <path id="pLO4SF99C" d="M1334 1327 c-131 -34 -211 -133 -234 -292 -5 -39 -10 -271 -10 -517 0 -448 0 -448 23 -453 22 -4 361 -55 372 -55 3 0 5 208 6 463 0 494 3 520 49 545 26 13 119 12 153 -3 15 -6 17 0 17 67 0 41 3 102 6 136 7 60 7 60 -76 86 -100 32 -232 42 -306 23z"/>
      <path id="p0Hekepz8" d="M4939 1325 c-376 -75 -518 -528 -253 -806 117 -122 298 -178 483 -150 75 12 162 43 180 65 15 18 -19 258 -35 252 -39 -15 -142 -28 -193 -24 -108 8 -173 78 -173 187 0 32 7 71 15 87 20 38 65 80 100 93 40 15 133 14 197 -3 30 -8 56 -13 58 -11 2 2 12 62 21 134 18 131 18 131 -35 151 -108 40 -243 49 -365 25z"/>
      <path id="pGc8S0Rp0" d="M5831 1330 c-177 -37 -332 -196 -370 -378 -57 -274 113 -533 384 -583 148 -27 287 35 363 161 27 45 27 45 30 -62 3 -108 3 -108 197 -108 195 0 195 0 195 485 0 485 0 485 -195 485 -195 0 -195 0 -195 -87 -1 -88 -1 -88 -28 -53 -75 97 -148 137 -263 145 -41 2 -94 0 -118 -5z m318 -323 c51 -34 83 -95 83 -157 0 -162 -194 -250 -314 -142 -108 98 -86 245 47 317 45 24 133 16 184 -18z"/>
      <path id="pKptuhrSL" d="M7064 1327 c-131 -34 -211 -133 -234 -292 -5 -39 -10 -271 -10 -517 0 -448 0 -448 23 -453 22 -4 361 -55 372 -55 3 0 5 208 6 463 0 494 3 520 49 545 26 13 119 12 153 -3 15 -6 17 0 17 67 0 41 3 102 6 136 7 60 7 60 -76 86 -100 32 -232 42 -306 23z"/>
      <path id="pS15d7Di5" d="M7733 1329 c-74 -9 -184 -36 -196 -48 -8 -8 24 -206 35 -217 3 -3 32 2 64 11 85 23 226 31 263 15 24 -10 31 -19 31 -41 0 -38 -26 -54 -134 -79 -113 -26 -163 -48 -214 -94 -51 -46 -76 -115 -75 -208 1 -179 132 -285 378 -304 113 -9 301 19 343 52 5 4 -30 208 -37 216 -3 4 -42 -2 -86 -13 -142 -34 -255 -22 -255 27 0 32 30 49 130 72 114 27 171 53 224 102 58 53 81 113 80 205 -2 233 -211 349 -551 304z"/>
    </g>
  </g>
  <g id="l2Kyo69y0MfKJnaUwOvyUkl" fill="rgb(49,133,30)" style="transform:none">
    <g>
      <path id="p5o5C5GFN" d="M2225 1334 c-207 -32 -361 -164 -410 -349 -20 -77 -19 -216 1 -286 64 -219 246 -349 489 -349 212 1 376 95 462 267 20 40 51 84 67 97 92 69 118 61 256 -83 146 -153 171 -156 285 -37 71 74 71 74 105 9 83 -161 247 -253 450 -253 155 0 278 47 373 141 144 144 180 391 86 587 -27 56 -107 142 -167 180 -148 95 -378 105 -539 24 -67 -34 -194 -146 -278 -244 -125 -147 -182 -146 -316 9 -125 145 -184 157 -278 59 -40 -41 -47 -43 -56 -16 -13 40 -88 123 -148 161 -33 22 -90 48 -125 59 -64 20 -200 32 -257 24z m189 -281 c62 -44 91 -110 91 -208 0 -68 -4 -89 -28 -138 -79 -161 -276 -154 -350 12 -31 71 -28 183 7 254 41 84 102 120 191 112 33 -3 63 -14 89 -32z m1584 21 c90 -37 131 -109 132 -229 0 -123 -44 -203 -132 -240 -147 -61 -281 75 -266 269 9 101 57 174 135 201 50 19 86 18 131 -1z"/>
    </g>
  </g>
</svg>
